# Blender v2.90.1 OBJ File: 'leveltest.blend'
# www.blender.org
mtllib leveltest.mtl
o Plane
v 44.544228 0.000000 -39.074192
v -59.559994 0.000000 -39.074192
v 44.544228 0.000000 39.074192
v -59.559994 0.000000 39.074192
v 44.544235 0.000000 17.932636
v 44.544235 0.000000 -17.932636
v -9.437358 4.934203 -12.885105
v -9.437358 4.934203 12.885105
v -0.362844 0.000000 -39.074192
v -0.362844 0.000000 39.074192
v 7.426390 0.000000 -22.770491
v 7.426390 0.000000 22.747606
v -58.266071 0.000000 -23.147142
v -58.266071 0.000000 23.247805
v -54.630642 4.934203 -12.885105
v -54.630642 4.934203 12.885105
vt 0.712840 0.635532
vt 0.730048 0.023597
vt 0.877523 0.014479
vt 0.866604 0.565202
vt 0.131148 0.563034
vt 0.122477 0.014479
vt 0.270256 0.024136
vt 0.283724 0.634212
vt 0.381941 0.473667
vt 0.615665 0.472489
vt 0.328893 0.981201
vt 0.663960 0.983308
vt 0.133056 0.981604
vt 0.860804 0.985664
vt 0.377569 0.056718
vt 0.621352 0.055974
vn 0.0477 0.9980 0.0409
vn 0.0009 0.9811 0.1934
vn 0.0000 1.0000 0.0000
vn 0.0006 0.9809 -0.1942
vn 0.0476 0.9980 -0.0410
vn 0.0980 0.9774 -0.1872
vn 0.0981 0.9775 0.1866
vn 0.0008 0.9694 -0.2455
vn 0.0011 0.9697 0.2444
usemtl None
s 1
f 12/1/1 14/2/2 4/3/3 10/4/3
f 9/5/3 2/6/3 13/7/4 11/8/5
f 11/8/5 7/9/6 8/10/7 12/1/1
f 6/11/3 11/8/5 12/1/1 5/12/3
f 1/13/3 9/5/3 11/8/5 6/11/3
f 5/12/3 12/1/1 10/4/3 3/14/3
f 8/10/7 7/9/6 15/15/8 16/16/9
f 11/8/5 13/7/4 15/15/8 7/9/6
f 14/2/2 12/1/1 8/10/7 16/16/9
