# Blender v2.90.1 OBJ File: 'Sprout2.blend'
# www.blender.org
mtllib Sprout2.mtl
o Cube_Cube.001
v 0.000000 -0.023433 0.325195
v 0.000000 0.864571 0.066750
v -0.325195 -0.023433 -0.325195
v -0.131362 0.864571 -0.195973
v 0.325195 -0.023433 -0.325195
v 0.131362 0.864571 -0.195973
v 0.000000 0.301762 0.187358
v -0.221817 0.301762 -0.256277
v 0.221817 0.301762 -0.256277
v 0.000000 1.768559 0.450121
v 0.260053 1.234925 0.796844
v -0.260499 1.234925 0.796844
v 0.097946 1.400993 -0.032566
v 0.000000 1.400993 0.163325
v -0.097946 1.400993 -0.032566
v -0.217603 1.629777 0.374915
v 0.217157 1.629777 0.374915
v -0.000223 1.763040 0.455262
v -0.000223 1.250284 1.012249
v 0.324972 1.461868 0.653408
v -0.325418 1.461868 0.653408
v -0.000223 1.595131 0.733755
v -0.093631 1.414262 -0.026976
v 0.035664 1.481254 0.042595
v -0.029009 1.548359 0.160605
v -0.386733 2.208959 -0.431714
v -0.807534 1.675325 -0.535499
v -0.404562 1.675325 -0.865026
v -0.156998 1.841393 0.003949
v -0.205181 1.841393 -0.209698
v -0.005354 1.841393 -0.120057
v -0.170673 2.070178 -0.511245
v -0.507231 2.070178 -0.236028
v -0.389815 2.203440 -0.435835
v -0.742406 1.690684 -0.867012
v -0.766990 1.902269 -0.383365
v -0.263506 1.902269 -0.795085
v -0.566110 2.035531 -0.651423
v 0.058681 1.432439 0.003368
v 0.042153 1.544035 0.148546
v -0.096985 1.589426 0.058404
v 0.570835 2.659965 -0.129955
v 0.671222 2.126331 -0.551579
v 1.003989 2.126331 -0.151278
v 0.137039 2.292399 0.103288
v 0.350290 2.292399 0.053382
v 0.262264 2.292399 0.253926
v 0.652106 2.521183 0.085456
v 0.374183 2.521183 -0.248870
v 0.574930 2.654446 -0.133069
v 1.003249 2.141689 -0.489127
v 0.519420 2.353274 -0.509809
v 0.935187 2.353274 -0.009663
v 0.789090 2.486537 -0.311098
vt 0.613687 0.480093
vt 0.403656 0.578076
vt 0.334526 0.480957
vt 0.496080 0.298664
vt 0.243812 0.431054
vt 0.319693 0.194392
vt 0.126626 0.421205
vt 0.102953 0.190016
vt 0.102489 0.623789
vt 0.172773 0.600287
vt 0.086302 0.811588
vt 0.359176 0.050476
vt 0.051099 0.049645
vt 0.598682 0.185374
vt 0.762156 0.450662
vt 0.747513 0.743681
vt 0.563425 0.759192
vt 0.603946 0.582116
vt 0.745755 0.577613
vt 0.225711 0.632405
vt 0.240844 0.704718
vt 0.931889 0.755290
vt 0.887627 0.579113
vt 0.916222 0.901614
vt 0.749929 0.971834
vt 0.582187 0.905151
vt 0.102489 0.623789
vt 0.172773 0.600287
vt 0.086302 0.811588
vt 0.747513 0.743681
vt 0.563425 0.759192
vt 0.603946 0.582116
vt 0.745755 0.577613
vt 0.225711 0.632405
vt 0.240844 0.704718
vt 0.334526 0.480957
vt 0.403656 0.578076
vt 0.243812 0.431054
vt 0.126626 0.421205
vt 0.931889 0.755290
vt 0.887627 0.579113
vt 0.916222 0.901614
vt 0.749929 0.971834
vt 0.582187 0.905151
vt 0.102489 0.623789
vt 0.172773 0.600287
vt 0.086302 0.811588
vt 0.747513 0.743681
vt 0.563425 0.759192
vt 0.603946 0.582116
vt 0.745755 0.577613
vt 0.225711 0.632405
vt 0.240844 0.704718
vt 0.334526 0.480957
vt 0.403656 0.578076
vt 0.243812 0.431054
vt 0.126626 0.421205
vt 0.931889 0.755290
vt 0.887627 0.579113
vt 0.916222 0.901614
vt 0.749929 0.971834
vt 0.582187 0.905151
vn 0.0000 0.3182 0.9480
vn 0.0000 0.0186 0.9998
vn -0.8097 0.2072 -0.5490
vn -0.8167 0.2875 -0.5003
vn 0.8097 0.2072 -0.5490
vn 0.8167 0.2875 -0.5003
vn 0.0000 -0.4715 0.8818
vn 0.7827 0.4272 -0.4526
vn 0.0000 0.6721 0.7404
vn 0.7921 0.3568 -0.4953
vn 0.0000 0.3902 0.9207
vn -0.7921 0.3568 -0.4953
vn 0.0000 0.7623 0.6472
vn 0.5060 0.6350 0.5837
vn 0.4959 0.7828 0.3760
vn 0.0000 0.9014 0.4329
vn -0.7827 0.4272 -0.4526
vn -0.5060 0.6350 0.5837
vn -0.4959 0.7828 0.3760
vn -0.4895 0.4811 0.7273
vn 0.0000 0.5517 0.8340
vn 0.4895 0.4811 0.7273
vn -0.5066 -0.5915 -0.6273
vn -0.3309 0.4526 0.8281
vn -0.4687 0.6721 -0.5732
vn -0.4097 0.7623 -0.5011
vn -0.7612 0.6350 -0.1315
vn -0.6218 0.7828 0.0228
vn -0.2741 0.9014 -0.3352
vn 0.9058 0.3405 -0.2523
vn 0.9368 0.0872 -0.3388
vn -0.4975 -0.5338 -0.6837
vn -0.1422 0.3401 0.9296
vn 0.0222 0.6350 -0.7722
vn 0.1458 0.7828 -0.6049
vn -0.0814 0.4811 -0.8729
vn -0.5280 0.5517 -0.6456
vn -0.8393 0.4811 -0.2531
vn 0.6940 -0.4916 -0.5260
vn -0.8524 0.4874 -0.1895
vn 0.5694 0.6721 -0.4733
vn 0.4977 0.7623 -0.4137
vn 0.1254 0.6350 -0.7623
vn -0.0279 0.7828 -0.6217
vn 0.3329 0.9014 -0.2767
vn 0.1880 0.2333 0.9540
vn 0.4096 -0.2218 0.8849
vn 0.6172 -0.1580 -0.7708
vn -0.8361 0.2685 -0.4782
vn 0.7723 0.6350 0.0160
vn 0.6061 0.7828 0.1410
vn 0.8722 0.4811 -0.0885
vn 0.6413 0.5517 -0.5332
vn 0.2463 0.4811 -0.8413
usemtl None
s 1
f 7/1/1 2/2/2 4/3/3 8/4/4
f 8/4/4 4/3/3 6/5/5 9/6/6
f 9/6/6 6/5/5 2/7/2 7/8/1
f 14/9/7 13/10/8 10/11/9
f 5/12/10 9/6/6 7/8/1 1/13/11
f 3/14/12 8/4/4 9/6/6 5/12/10
f 1/15/11 7/1/1 8/4/4 3/14/12
f 22/16/13 20/17/14 17/18/15 18/19/16
f 13/10/8 15/20/17 10/11/9
f 15/20/17 14/21/7 10/11/9
f 4/3/3 2/2/2 14/21/7 15/20/17
f 6/5/5 4/3/3 15/20/17 13/10/8
f 2/7/2 6/5/5 13/10/8 14/9/7
f 21/22/18 22/16/13 18/19/16 16/23/19
f 12/24/20 19/25/21 22/16/13 21/22/18
f 19/25/21 11/26/22 20/17/14 22/16/13
f 30/27/23 29/28/24 26/29/25
f 38/30/26 36/31/27 33/32/28 34/33/29
f 29/28/24 31/34/30 26/29/25
f 31/34/30 30/35/23 26/29/25
f 24/36/31 23/37/32 30/35/23 31/34/30
f 25/38/33 24/36/31 31/34/30 29/28/24
f 23/39/32 25/38/33 29/28/24 30/27/23
f 37/40/34 38/30/26 34/33/29 32/41/35
f 28/42/36 35/43/37 38/30/26 37/40/34
f 35/43/37 27/44/38 36/31/27 38/30/26
f 46/45/39 45/46/40 42/47/41
f 54/48/42 52/49/43 49/50/44 50/51/45
f 45/46/40 47/52/46 42/47/41
f 47/52/46 46/53/39 42/47/41
f 40/54/47 39/55/48 46/53/39 47/52/46
f 41/56/49 40/54/47 47/52/46 45/46/40
f 39/57/48 41/56/49 45/46/40 46/45/39
f 53/58/50 54/48/42 50/51/45 48/59/51
f 44/60/52 51/61/53 54/48/42 53/58/50
f 51/61/53 43/62/54 52/49/43 54/48/42
