# Blender v2.90.1 OBJ File: 'boiho2.blend'
# www.blender.org
mtllib boiho2.mtl
o Cube_Cube.001
v -5.124861 0.274193 3.481099
v -5.124861 6.150814 3.481099
v -5.124861 0.274193 -3.481099
v -5.124861 6.150814 -3.481099
v 5.124861 0.274193 3.481099
v 5.124861 6.150814 3.481099
v 5.124861 0.274193 -3.481099
v 5.124861 6.150814 -3.481099
v 3.334426 0.274193 -5.124861
v -3.334426 0.274193 -5.124861
v -3.334426 5.387643 -5.124861
v 3.334426 5.387643 -5.124861
v -3.334426 0.274193 5.124861
v 3.334426 0.274193 5.124861
v 3.334426 5.387643 5.124861
v -3.334426 5.387643 5.124861
v 9.650955 4.627435 -7.234957
v -6.550362 4.627435 -7.234957
v -6.550362 4.627435 7.234957
v 9.650955 4.627435 7.234957
v -3.922070 7.843906 0.000000
v 7.022663 7.843906 0.000000
v 7.713900 -0.098536 3.685695
v 7.713900 6.170507 3.685695
v 9.012868 -0.098536 2.850269
v 9.012868 5.118335 2.850269
v 7.824939 -0.098536 2.145265
v 7.824939 6.227826 2.145265
v 7.713900 -0.098536 -2.133515
v 7.713900 6.186300 -2.133515
v 9.012868 -0.098536 -2.968941
v 9.012868 5.281297 -2.968941
v 7.824939 -0.098536 -3.673945
v 7.824939 6.170507 -3.673945
vt 0.719984 0.387705
vt 0.959940 0.387705
vt 0.959940 0.612295
vt 0.719984 0.612295
vt 0.719984 0.905828
vt 0.928778 0.905828
vt 0.959940 0.984235
vt 0.719983 0.984235
vt 0.175941 0.966622
vt 0.175941 0.759014
vt 0.407769 0.759014
vt 0.407769 0.966622
vt 0.719984 0.309299
vt 0.928778 0.309299
vt 0.071130 0.718001
vt 0.372774 0.566988
vt 0.376218 0.189913
vt 0.071130 0.039909
vt 0.676311 0.716992
vt 0.676311 0.045101
vt 0.719983 0.015766
vt 0.959940 0.015765
vt 0.928778 0.094172
vt 0.719984 0.094172
vt 0.928778 0.690701
vt 0.719984 0.690701
vt 0.501946 0.976651
vt 0.501946 0.755180
vt 0.553373 0.753155
vt 0.553373 0.976651
vt 0.599370 0.792351
vt 0.599370 0.976651
vt 0.450520 0.976651
vt 0.450520 0.792351
vt 0.501884 0.976607
vt 0.501884 0.754577
vt 0.553310 0.755135
vt 0.553310 0.976607
vt 0.599307 0.786549
vt 0.599307 0.976607
vt 0.450457 0.976607
vt 0.450457 0.786549
vn -0.9155 0.0000 0.4023
vn -0.9334 0.0000 0.3587
vn -0.9334 0.0000 -0.3587
vn -0.9155 0.0000 -0.4023
vn 0.3629 0.0000 -0.9318
vn 0.3947 0.0000 -0.9188
vn 0.9334 0.0000 -0.3587
vn 0.9155 0.0000 -0.4023
vn 0.9334 0.0000 0.3587
vn 0.9155 0.0000 0.4023
vn -0.3629 0.0000 0.9318
vn -0.3947 0.0000 0.9188
vn -0.2508 0.9151 -0.3157
vn -0.3217 0.9468 0.0000
vn 0.3217 0.9468 0.0000
vn 0.2508 0.9151 -0.3157
vn -0.2508 0.9151 0.3157
vn 0.2508 0.9151 0.3157
vn 0.3947 0.0000 0.9188
vn 0.3629 0.0000 0.9318
vn -0.3947 0.0000 -0.9188
vn -0.3629 0.0000 -0.9318
vn -0.5104 0.0000 0.8600
vn -0.8377 0.0000 0.5462
vn -0.7736 0.0000 -0.6336
vn -0.4632 0.0000 -0.8862
vn 0.9989 0.0000 -0.0467
vn 0.9998 0.0000 -0.0179
vn -0.7931 0.0000 0.6091
vn -0.7391 0.0000 -0.6736
vn 0.9994 0.0000 -0.0339
usemtl None
s 1
f 1/1/1 2/2/2 4/3/3 3/4/4
f 9/5/5 12/6/6 8/7/7 7/8/8
f 7/9/8 8/10/7 6/11/9 5/12/10
f 13/13/11 16/14/12 2/2/2 1/1/1
f 18/15/13 21/16/14 22/17/15 17/18/16
f 21/16/14 19/19/17 20/20/18 22/17/15
f 5/21/10 6/22/9 15/23/19 14/24/20
f 14/24/20 15/23/19 16/14/12 13/13/11
f 3/4/4 4/3/3 11/25/21 10/26/22
f 10/26/22 11/25/21 12/6/6 9/5/5
f 23/27/23 24/28/24 28/29/25 27/30/26
f 27/30/26 28/29/25 26/31/27 25/32/28
f 25/33/28 26/34/27 24/28/24 23/27/23
f 29/35/23 30/36/29 34/37/30 33/38/26
f 33/38/26 34/37/30 32/39/31 31/40/28
f 31/41/28 32/42/31 30/36/29 29/35/23
f 18/15/13 19/19/17 21/16/14
f 20/20/18 17/18/16 22/17/15
